OpenSim_Sub06_EMGBaseline_GRF.mot
version=1
nRows=58
nColumns=19
inDegrees=no
endheader
time	lFx	lFy	lFz	lCOPx	lCOPy	lCOPz	rFx	rFy	rFz	rCOPx	rCOPy	rCOPz	lMx	lMy	lMz	rMx	rMy	rMz
62.02000000	8.04936015	645.37251916	67.58442122	0.76400178	0	-0.65479229	-0.24479577	-0.19229653	0.17882717	-0.00000071	0	0.00000037	0	-0.10093177	0	0	0.00000306	0.00000000
62.03000000	11.13288709	647.08179147	67.54107006	0.75756708	0	-0.65473635	-0.21856168	-0.24045452	0.17589879	-0.00001170	0	0.00000499	0	-0.18709443	0	0	0.00000807	0.00000000
62.04000000	14.18465535	648.81468870	67.47505473	0.75120265	0	-0.65465639	-0.19896688	-0.23286937	0.14958080	-0.00003308	0	0.00001387	0	-0.26767181	0	0	0.00001308	-0.00000000
62.05000000	17.37992659	650.59833026	67.49951800	0.74480122	0	-0.65457421	-0.20051014	-0.17694780	0.13192754	-0.00005681	0	0.00002350	0	-0.33711587	0	0	0.00000943	0.00000000
62.06000000	20.71826596	652.25716972	67.68281239	0.73840287	0	-0.65451148	-0.19596344	-0.10684905	0.13947575	-0.00004835	0	0.00001928	0	-0.39012955	0	0	-0.00002076	-0.00000000
62.07000000	24.02917384	653.45696339	67.99196160	0.73203363	0	-0.65451635	-0.20303817	-0.03512814	0.18980556	0.00006752	0	-0.00003011	0	-0.42450841	0	0	-0.00009924	0.00000000
62.08000000	27.23739551	653.84516392	68.42553890	0.72568203	0	-0.65461163	-0.20609131	0.02903384	0.24574627	0.00038989	0	-0.00016523	0	-0.53286757	0	0	-0.00022485	-0.00000000
62.09000000	30.45238810	653.15540040	68.83925762	0.71935524	0	-0.65476320	-0.18392695	0.08875435	0.28700314	0.00093658	0	-0.00039123	0	-0.71074228	0	0	-0.00031148	0.00000000
62.10000000	33.72497921	651.40555202	69.11388618	0.71303171	0	-0.65491928	-0.15871288	0.07516429	0.28279741	0.00138647	0	-0.00057018	0	-0.91491986	0	0	-0.00010018	-0.00000000
62.11000000	36.97392439	648.99284388	69.30752207	0.70694346	0	-0.65506843	-0.13492741	-0.06303753	0.21314020	0.00068962	0	-0.00026061	0	-1.15115667	0	0	0.00087465	0.00000000
62.12000000	40.08045582	646.19912772	69.39113295	0.70116731	0	-0.65519821	-0.14667783	-0.47168035	0.14651025	-0.00314790	0	0.00136488	0	-1.33772412	0	0	0.00305533	0.00000000
62.13000000	43.05331955	642.98383435	69.45299643	0.69561074	0	-0.65528981	-0.25444625	-1.42565715	0.12964265	-0.01224395	0	0.00516319	0	-1.48413731	0	0	0.00602925	0.00000000
62.14000000	45.92194638	639.08893617	69.60553503	0.69003836	0	-0.65533096	-0.55648371	-2.99142860	0.18760891	-0.02551608	0	0.01061802	0	-1.65305516	0	0	0.00685720	0.00000000
62.15000000	48.71138557	634.34460931	69.80961387	0.68447170	0	-0.65533399	-1.06203600	-4.28938182	0.42572585	-0.03162259	0	0.01290087	0	-1.84354755	0	0	-0.00188695	0.00000000
62.16000000	51.38521909	628.83322367	70.05623595	0.67915659	0	-0.65530713	-1.50576789	-2.45440294	0.98597263	0.00002477	0	-0.00080030	0	-2.04097024	0	0	-0.03177361	-0.00000000
62.17000000	53.90389101	622.48574231	70.28417041	0.67404510	0	-0.65526638	-1.01855542	8.23045568	1.72072709	0.11998488	0	-0.05136657	0	-2.22524288	0	0	-0.09003601	0
62.18000000	56.35703219	614.75837210	70.34866821	0.66880617	0	-0.65521217	0.29892178	37.46190094	2.05897894	0.36692337	0	-0.15408864	0	-2.37822083	0	0	-0.15492607	0
62.19000000	58.86484858	604.70955700	70.03544195	0.66331709	0	-0.65514287	-2.56323107	95.55422708	2.78409300	0.67320416	0	-0.27920123	0	-2.50317353	0	0	-0.14183027	0
62.20000000	61.38789961	591.02844425	69.13209602	0.65781049	0	-0.65503526	-15.13212422	182.68627725	2.86757860	0.88162439	0	-0.36274950	0	-2.61307499	0	0	-0.02380028	0.00000000
62.21000000	63.59835561	572.19380157	67.39768966	0.65268422	0	-0.65489270	-34.79243858	285.29322519	-0.65500287	0.96906532	0	-0.39680366	0	-2.69344713	0	0	0.25135937	0
62.22000000	65.18961543	546.74041596	64.48283343	0.64812792	0	-0.65467925	-52.85893281	378.99126600	-6.95526378	0.98577166	0	-0.40130937	0	-2.70220302	0	0	0.74563668	-0.00000000
62.23000000	65.98148774	513.84847628	60.04166528	0.64402254	0	-0.65429312	-64.12330801	440.89776067	-14.13724058	0.97602458	0	-0.39504621	0	-2.55174842	0	0	1.13025705	0
62.24000000	65.69178001	473.73508211	53.98003225	0.64006926	0	-0.65365143	-68.59402379	464.21612865	-20.71942032	0.96239411	0	-0.38769788	0	-2.17190368	0	0	1.38743750	0
62.25000000	63.85422073	427.65565281	46.79811184	0.63645120	0	-0.65274753	-68.31487632	459.95419044	-28.65180938	0.95206161	0	-0.38203869	0	-1.64745647	0	0	1.50685726	0
62.26000000	60.21618820	377.44634623	39.35988279	0.63328025	0	-0.65166328	-65.69491396	446.03280568	-39.23752129	0.94530125	0	-0.37776243	0	-1.09924412	0	0	1.44095634	0
62.27000000	54.86272717	324.91517896	32.39048849	0.63068170	0	-0.65080827	-62.87921022	435.52561277	-51.81366122	0.94089687	0	-0.37417996	0	-0.62063659	0	0	1.25559101	0
62.28000000	48.05472696	271.86826646	26.19996988	0.62944719	0	-0.65121207	-60.65511518	433.53311722	-64.32395578	0.93773764	0	-0.37098530	0	-0.25083603	0	0	0.92289703	0.00000000
62.29000000	40.11222453	220.44729382	20.85722256	0.63162515	0	-0.65432595	-58.84415630	440.08592617	-74.92267615	0.93468886	0	-0.36821212	0	0.05313572	0	0	0.51643557	0
62.30000000	31.50935583	172.81807671	16.50799226	0.63919427	0	-0.66073246	-57.01623399	454.13256404	-82.70717253	0.93102403	0	-0.36607910	0	0.27242796	0	0	0.16440236	0
62.31000000	22.91884620	130.72897451	13.23196978	0.64956264	0	-0.66678181	-54.95131612	475.02708793	-87.44191304	0.92623849	0	-0.36475138	0	0.34216317	0	0	-0.07745907	0
62.32000000	14.99586738	95.49150199	10.94101897	0.64869552	0	-0.65893824	-52.71805384	502.03816022	-89.13729193	0.92025356	0	-0.36419272	0	0.29707515	0	0	-0.19662040	0
62.33000000	8.18611898	67.55359906	9.30078845	0.60747765	0	-0.60968173	-50.60392795	533.59501438	-88.18777795	0.91355151	0	-0.36417314	0	0.24731653	0	0	-0.17273454	-0.00000000
62.34000000	2.82012246	46.51459391	8.02897190	0.49220729	0	-0.48688244	-48.67051396	567.10010901	-85.42009608	0.90651916	0	-0.36440644	0	0.24975655	0	0	-0.06794419	0
62.35000000	-1.01610252	31.43987765	7.03823473	0.30536322	0	-0.29592168	-46.73543730	600.20257338	-82.07458445	0.89967639	0	-0.36466798	0	0.23467783	0	0	0.07554715	0
62.36000000	-3.35846820	20.94063241	6.25190584	0.12641433	0	-0.11886438	-44.58901232	631.50270600	-79.54083102	0.89328480	0	-0.36480181	0	0.12917019	0	0	0.20620395	0
62.37000000	-3.99619221	13.29993277	5.49835538	0.02148850	0	-0.01788242	-42.21178274	660.12322250	-78.67040899	0.88719530	0	-0.36468447	0	0.04232199	0	0	0.24750500	0
62.38000000	-2.75100810	7.08297880	4.55996088	-0.01600366	0	0.01692156	-39.80027848	684.90465566	-79.50037949	0.88122073	0	-0.36431452	0	0.00007568	0	0	0.23441923	0
62.39000000	-0.44953297	2.21701549	3.46587642	-0.01857692	0	0.01836638	-37.45354190	704.45597715	-81.31563365	0.87540135	0	-0.36378790	0	-0.01110016	0	0	0.18917500	0
62.40000000	1.28679615	-0.31985029	2.81972543	-0.01076527	0	0.01035335	-35.18368025	717.83849679	-83.17034605	0.86977651	0	-0.36314788	0	-0.00897432	0	0	0.10046639	0
62.41000000	2.03927136	-1.00848269	2.69976026	-0.00378507	0	0.00350831	-33.04573175	724.60838028	-84.48604448	0.86440034	0	-0.36237409	0	-0.00431212	0	0	0.01988916	0
62.42000000	2.13835009	-0.93314213	2.65537261	-0.00021434	0	0.00009971	-31.09536463	724.47338677	-85.12167740	0.85944286	0	-0.36145029	0	-0.00111181	0	0	-0.05657191	0.00000000
62.43000000	1.96000228	-0.74566157	2.76978712	0.00082530	0	-0.00084478	-29.17144758	717.78725802	-85.22465345	0.85476719	0	-0.36043164	0	0.00024031	0	0	-0.16331839	0.00000000
62.44000000	1.76432158	-0.62039223	2.83338783	0.00072229	0	-0.00070777	-27.18331257	706.35553664	-85.15261331	0.85025426	0	-0.35937555	0	0.00048707	0	0	-0.24617604	0
62.45000000	1.65109127	-0.56352388	2.87004467	0.00036501	0	-0.00034816	-25.22535620	692.41047872	-85.02436562	0.84584255	0	-0.35831605	0	0.00032954	0	0	-0.33327633	0
62.46000000	1.60028894	-0.53141635	2.87371123	0.00010397	0	-0.00009421	-23.37161803	677.66745398	-84.86132558	0.84149116	0	-0.35727604	0	0.00013740	0	0	-0.46157061	-0.00000000
62.47000000	1.54960882	-0.53994640	2.79345894	-0.00001239	0	0.00001582	-21.55915685	663.26927135	-84.58620946	0.83707944	0	-0.35626197	0	0.00002395	0	0	-0.54154224	0
62.48000000	1.47669914	-0.52269911	2.73333099	-0.00003742	0	0.00003761	-19.58304246	650.10478289	-84.02820507	0.83252328	0	-0.35529308	0	-0.00001691	0	0	-0.58075500	0.00000000
62.49000000	1.41068155	-0.45521505	2.65136195	-0.00002694	0	0.00002618	-17.44148779	638.91541484	-83.25176056	0.82788041	0	-0.35440291	0	-0.00002000	0	0	-0.58899781	0
62.50000000	1.35630973	-0.38195943	2.58919855	-0.00001191	0	0.00001123	-15.28068604	630.06240205	-82.35526286	0.82313754	0	-0.35360358	0	-0.00001182	0	0	-0.54754485	0
62.51000000	1.29391859	-0.39471720	2.52317509	-0.00000256	0	0.00000219	-13.18292477	623.70216487	-81.30785401	0.81819096	0	-0.35290036	0	-0.00000457	0	0	-0.48611370	0
62.52000000	1.23119677	-0.52542138	2.40786983	0.00000109	0	-0.00000120	-11.11446398	620.07511932	-80.28322172	0.81308520	0	-0.35232110	0	-0.00000093	0	0	-0.42210848	0.00000000
62.53000000	1.16754588	-0.61680202	2.33062844	0.00000181	0	-0.00000171	-8.96671924	619.17637406	-79.41247954	0.80795147	0	-0.35191497	0	0.00000050	0	0	-0.38552236	0
62.54000000	1.11462140	-0.60608390	2.32246646	0.00000187	0	-0.00000151	-6.77803622	620.50509420	-78.62626300	0.80274578	0	-0.35167000	0	0.00000218	0	0	-0.36448596	0
62.55000000	1.06567202	-0.52724592	2.33587623	0.00000223	0	-0.00000156	-4.54949714	623.40722879	-77.90756709	0.79738308	0	-0.35155219	0	0.00000611	0	0	-0.28795777	0
62.56000000	1.01282334	-0.46368129	2.29790300	0.00000232	0	-0.00000155	-2.20758401	627.46614044	-77.35022667	0.79178788	0	-0.35152141	0	0.00001228	0	0	-0.18483632	0.00000000
62.57000000	0.92808922	-0.42232689	2.23457394	-0.00000016	0	0.00000005	0.44843226	632.45957384	-77.07878393	0.78575229	0	-0.35156356	0	0.00001553	0	0	-0.10696541	0.00000000
62.58000000	0.79952275	-0.38316189	2.18866896	-0.00000902	0	0.00000575	3.48086537	638.16370645	-77.20176574	0.77943178	0	-0.35165457	0	0.00000138	0	0	-0.04533966	-0.00000000
62.59000000	0.66741625	-0.34915204	2.16213246	-0.00002704	0	0.00001751	6.71560266	644.11487444	-77.64050622	0.77310723	0	-0.35172233	0	-0.00005462	0	0	-0.02093810	-0.00000000
